<svg width="171" height="63" viewBox="0 0 171 63" fill="none" xmlns="http://www.w3.org/2000/svg">
<path d="M28.0238 49.2562H23.3188V25.0212H28.0238V49.2562Z" fill="white"/>
<path d="M42.2605 49.2562H37.5712V29.8708H30.5016V25.0212H49.3144V29.8708H42.2605V49.2562Z" fill="white"/>
<path d="M71.2834 40.5778C71.2834 40.0631 71.385 39.5813 71.5854 39.1295C71.7872 38.6791 72.0606 38.2845 72.4085 37.9457C72.7549 37.6083 73.16 37.3409 73.6209 37.1436C74.0832 36.9478 74.577 36.8491 75.1052 36.8491H80.9539V39.3382H75.1052C74.9277 39.3382 74.7617 39.3697 74.6071 39.434C74.4539 39.4984 74.3194 39.5856 74.2034 39.6985C74.0875 39.8115 73.9973 39.943 73.9315 40.0931C73.8671 40.2432 73.8341 40.4048 73.8341 40.5792C73.8341 40.7536 73.8671 40.9166 73.9315 41.0696C73.9959 41.2226 74.0875 41.3556 74.2034 41.4685C74.3194 41.5814 74.4539 41.6701 74.6071 41.733C74.7617 41.7959 74.9277 41.8288 75.1052 41.8288H77.656C78.1841 41.8288 78.6794 41.926 79.146 42.119C79.6127 42.312 80.0178 42.578 80.3642 42.9168C80.7106 43.2556 80.984 43.6517 81.1815 44.1049C81.3805 44.5595 81.4792 45.0428 81.4792 45.5575C81.4792 46.0722 81.3805 46.5554 81.1815 47.0058C80.984 47.4575 80.7106 47.8521 80.3642 48.1896C80.0178 48.5284 79.6112 48.7957 79.146 48.993C78.6808 49.1889 78.1841 49.2876 77.656 49.2876H71.9948V46.7984H77.656C77.8349 46.7984 77.9995 46.767 78.1541 46.7027C78.3072 46.6398 78.4418 46.5511 78.5592 46.4382C78.6751 46.3252 78.7653 46.1937 78.8297 46.0436C78.8955 45.8934 78.927 45.7319 78.927 45.5575C78.927 45.383 78.8955 45.2229 78.8297 45.0714C78.7653 44.9212 78.6751 44.7897 78.5592 44.6768C78.4418 44.5638 78.3072 44.4766 78.1541 44.4123C77.9995 44.3494 77.8349 44.3165 77.656 44.3165H75.1052C74.577 44.3165 74.0832 44.2193 73.6209 44.022C73.1585 43.8247 72.7549 43.5587 72.4085 43.2199C72.0606 42.8811 71.7872 42.485 71.5854 42.0318C71.385 41.5772 71.2834 41.0939 71.2834 40.5792V40.5778Z" fill="white"/>
<path d="M95.6414 43.1199C95.6414 43.7104 95.5627 44.278 95.4052 44.8241C95.2492 45.3703 95.0288 45.8821 94.7425 46.3596C94.4577 46.8372 94.1141 47.2718 93.7119 47.665C93.3083 48.0581 92.8645 48.3955 92.3778 48.6758C91.8926 48.956 91.3673 49.1733 90.8047 49.3263C90.2408 49.4793 89.6582 49.5565 89.0542 49.5565C88.4501 49.5565 87.8661 49.4793 87.3064 49.3263C86.7467 49.1733 86.2214 48.956 85.7333 48.6758C85.2452 48.3955 84.7986 48.0581 84.3964 47.665C83.9927 47.2718 83.6478 46.8372 83.3601 46.3596C83.0738 45.8821 82.8519 45.3703 82.6945 44.8241C82.537 44.278 82.4583 43.7104 82.4583 43.1199C82.4583 42.5295 82.537 41.9604 82.6945 41.4114C82.8519 40.8624 83.0738 40.3506 83.3601 39.8774C83.6478 39.4027 83.9927 38.9695 84.3964 38.5763C84.7986 38.1831 85.2452 37.8486 85.7333 37.5712C86.2214 37.2939 86.7467 37.078 87.3064 36.925C87.8661 36.772 88.4487 36.6948 89.0542 36.6948C89.6596 36.6948 90.2422 36.772 90.8047 36.925C91.3673 37.078 91.8926 37.2939 92.3778 37.5712C92.8631 37.8486 93.3083 38.1831 93.7119 38.5763C94.1141 38.9695 94.4577 39.4041 94.7425 39.8774C95.0274 40.352 95.2492 40.8638 95.4052 41.4114C95.5627 41.9604 95.6414 42.5309 95.6414 43.1199ZM93.1079 43.1199C93.1079 42.5766 93.0019 42.0634 92.7887 41.5801C92.5754 41.0969 92.2862 40.678 91.9227 40.322C91.5591 39.966 91.1282 39.6843 90.633 39.477C90.1377 39.2683 89.6124 39.1639 89.0556 39.1639C88.4988 39.1639 87.9649 39.2683 87.4739 39.477C86.9815 39.6858 86.5521 39.966 86.1842 40.322C85.8163 40.678 85.5258 41.0969 85.3125 41.5801C85.0992 42.0634 84.9933 42.5766 84.9933 43.1199C84.9933 43.6632 85.0992 44.1736 85.3125 44.6511C85.5258 45.1287 85.8163 45.5461 86.1842 45.905C86.5506 46.2638 86.9815 46.5469 87.4739 46.7542C87.9649 46.963 88.493 47.0673 89.0556 47.0673C89.6181 47.0673 90.1377 46.963 90.633 46.7542C91.1282 46.5455 91.5577 46.2624 91.9227 45.905C92.2862 45.5461 92.5754 45.1287 92.7887 44.6511C93.0019 44.1736 93.1079 43.6646 93.1079 43.1199Z" fill="white"/>
<path d="M106.237 49.2861H97.3119V36.8491H99.8626V46.797H106.237V49.2861Z" fill="white"/>
<path d="M117.177 44.3165C117.177 45.0042 117.044 45.6504 116.777 46.2552C116.511 46.8599 116.146 47.3861 115.684 47.8336C115.221 48.2811 114.682 48.6356 114.062 48.8958C113.442 49.156 112.781 49.2861 112.075 49.2861C111.37 49.2861 110.707 49.156 110.088 48.8958C109.469 48.6356 108.93 48.2811 108.471 47.8336C108.012 47.3861 107.649 46.8585 107.382 46.2552C107.115 45.6504 106.982 45.0042 106.982 44.3165V36.8491H109.523V44.3165C109.523 44.6582 109.59 44.9784 109.723 45.2801C109.857 45.5803 110.04 45.8434 110.27 46.0693C110.501 46.2952 110.773 46.4725 111.083 46.6026C111.394 46.7327 111.725 46.797 112.074 46.797C112.423 46.797 112.754 46.7327 113.064 46.6026C113.375 46.4725 113.647 46.2952 113.877 46.0693C114.108 45.8434 114.291 45.5803 114.424 45.2801C114.557 44.9799 114.625 44.6582 114.625 44.3165V36.8491H117.175V44.3165H117.177Z" fill="white"/>
<path d="M124.742 49.2861H122.201V39.3382H118.369V36.8491H128.565V39.3382H124.742V49.2861Z" fill="white"/>
<path d="M132.465 49.2861H129.915V36.8491H132.465V49.2861Z" fill="white"/>
<path d="M147.32 43.1199C147.32 43.7104 147.242 44.278 147.084 44.8241C146.928 45.3703 146.708 45.8821 146.422 46.3596C146.137 46.8372 145.793 47.2718 145.391 47.665C144.987 48.0581 144.544 48.3955 144.057 48.6758C143.572 48.956 143.046 49.1733 142.484 49.3263C141.92 49.4793 141.337 49.5565 140.733 49.5565C140.129 49.5565 139.545 49.4793 138.985 49.3263C138.426 49.1733 137.9 48.956 137.412 48.6758C136.924 48.3955 136.478 48.0581 136.075 47.665C135.672 47.2718 135.327 46.8372 135.039 46.3596C134.753 45.8821 134.531 45.3703 134.374 44.8241C134.216 44.278 134.137 43.7104 134.137 43.1199C134.137 42.5295 134.216 41.9604 134.374 41.4114C134.531 40.8624 134.753 40.3506 135.039 39.8774C135.327 39.4027 135.672 38.9695 136.075 38.5763C136.478 38.1831 136.924 37.8486 137.412 37.5712C137.9 37.2939 138.426 37.078 138.985 36.925C139.545 36.772 140.128 36.6948 140.733 36.6948C141.339 36.6948 141.921 36.772 142.484 36.925C143.046 37.078 143.572 37.2939 144.057 37.5712C144.542 37.8486 144.987 38.1831 145.391 38.5763C145.793 38.9695 146.137 39.4041 146.422 39.8774C146.706 40.352 146.928 40.8638 147.084 41.4114C147.242 41.9604 147.32 42.5309 147.32 43.1199ZM144.787 43.1199C144.787 42.5766 144.681 42.0634 144.468 41.5801C144.254 41.0969 143.965 40.678 143.602 40.322C143.238 39.966 142.807 39.6843 142.312 39.477C141.817 39.2683 141.291 39.1639 140.735 39.1639C140.178 39.1639 139.644 39.2683 139.153 39.477C138.661 39.6858 138.231 39.966 137.863 40.322C137.495 40.678 137.205 41.0969 136.992 41.5801C136.778 42.0634 136.672 42.5766 136.672 43.1199C136.672 43.6632 136.778 44.1736 136.992 44.6511C137.205 45.1287 137.495 45.5461 137.863 45.905C138.23 46.2638 138.661 46.5469 139.153 46.7542C139.644 46.963 140.172 47.0673 140.735 47.0673C141.297 47.0673 141.817 46.963 142.312 46.7542C142.807 46.5455 143.237 46.2624 143.602 45.905C143.965 45.5461 144.254 45.1287 144.468 44.6511C144.681 44.1736 144.787 43.6646 144.787 43.1199Z" fill="white"/>
<path d="M159.187 49.2861H156.458L151.542 41.0996V49.2861H148.991V36.8491H151.721L156.636 45.0456V36.8491H159.187V49.2861Z" fill="white"/>
<path d="M160.804 40.5778C160.804 40.0631 160.906 39.5813 161.106 39.1295C161.308 38.6791 161.581 38.2845 161.929 37.9457C162.276 37.6083 162.681 37.3409 163.142 37.1436C163.604 36.9478 164.098 36.8491 164.626 36.8491H170.475V39.3382H164.626C164.448 39.3382 164.282 39.3697 164.128 39.434C163.975 39.4984 163.84 39.5856 163.724 39.6985C163.608 39.8115 163.518 39.943 163.452 40.0931C163.388 40.2432 163.355 40.4048 163.355 40.5792C163.355 40.7536 163.388 40.9166 163.452 41.0696C163.517 41.2226 163.608 41.3556 163.724 41.4685C163.84 41.5814 163.975 41.6701 164.128 41.733C164.282 41.7959 164.448 41.8288 164.626 41.8288H167.177C167.705 41.8288 168.2 41.926 168.667 42.119C169.132 42.3135 169.539 42.578 169.885 42.9168C170.231 43.2556 170.505 43.6517 170.702 44.1049C170.901 44.5595 171 45.0428 171 45.5575C171 46.0722 170.901 46.5554 170.702 47.0058C170.505 47.4575 170.231 47.8521 169.885 48.1896C169.539 48.5284 169.132 48.7957 168.667 48.993C168.202 49.1889 167.705 49.2876 167.177 49.2876H161.516V46.7984H167.177C167.356 46.7984 167.52 46.767 167.675 46.7027C167.828 46.6398 167.963 46.5511 168.08 46.4382C168.196 46.3252 168.286 46.1937 168.35 46.0436C168.416 45.8934 168.448 45.7319 168.448 45.5575C168.448 45.383 168.416 45.2229 168.35 45.0714C168.286 44.9212 168.196 44.7897 168.08 44.6768C167.963 44.5638 167.828 44.4766 167.675 44.4123C167.52 44.3494 167.356 44.3165 167.177 44.3165H164.626C164.098 44.3165 163.604 44.2193 163.142 44.022C162.679 43.8247 162.276 43.5587 161.929 43.2199C161.581 42.8811 161.308 42.485 161.106 42.0318C160.906 41.5772 160.804 41.0939 160.804 40.5792V40.5778Z" fill="white"/>
<path d="M32.7245 57.1698C17.5203 57.1698 4.61911 47.3563 0 33.7297C1.80499 50.1899 15.7639 63.0001 32.7245 63.0001C49.6851 63.0001 63.6455 50.1899 65.449 33.7297C60.8285 47.3577 47.9288 57.1698 32.7245 57.1698Z" fill="#CF1C66"/>
<path d="M99.3044 5.83034C114.509 5.83034 127.41 15.6438 132.029 29.2704C130.225 12.8102 116.265 0 99.3044 0C82.3438 0 68.3834 12.8102 66.5798 29.2704C71.2004 15.6424 84.1001 5.83034 99.3044 5.83034Z" fill="#CF1C66"/>
</svg>
